<svg width="250" height="250" xmlns="http://www.w3.org/2000/svg"><path stroke="#000" stroke-width="2" d="M30 220h200m-200 0V20"/><path d="m230 220-5-5v10zM30 20l-5 5h10z"/><g fill="tomato"><circle cx="50" cy="100" r="7"/><circle cx="70" cy="80" r="7"/><circle cx="90" cy="120" r="7"/><circle cx="60" cy="140" r="7"/><circle cx="80" cy="160" r="7"/><circle cx="45" cy="180" r="7"/><circle cx="100" cy="100" r="7"/><circle cx="115" cy="75" r="7"/><circle cx="78" cy="115" r="7"/><circle cx="58" cy="65" r="7"/></g><path d="m120 180 10-17h-20zm30 10 10-17h-20zm30-20 10-17h-20zm-40-20 10-17h-20zm30-10 10-17h-20zm30 20 10-17h-20zm-45-35 10-17h-20zm40-15 10-17h-20zm-70 25 10-17h-20z" fill="#87ceeb"/><path stroke="#000" stroke-width="2" d="M60 200 160 40"/></svg>