<svg viewBox="0 0 12 12" xmlns="http://www.w3.org/2000/svg" width="12" height="12" fill="#AAA">
  <path fill="none" d="M0 0h12v12H0z"/>
  <path d="M7 1a.5.5 0 0 0-.5.575.525.525 0 0 0 .525.425H9.3L6.175 5.125a.5.5 0 0 0-.05.7A.45.45 0 0 0 6.5 6a.5.5 0 0 0 .35-.15L10 2.7v2.275a.525.525 0 0 0 .425.525A.5.5 0 0 0 11 5V1.5a.5.5 0 0 0-.5-.5Z"/>
  <path d="M10.425 7.5a.525.525 0 0 0-.425.525V10H2V2h2a.5.5 0 0 0 .5-.575A.525.525 0 0 0 3.975 1H1.5a.5.5 0 0 0-.5.5v9a.5.5 0 0 0 .5.5h9a.5.5 0 0 0 .5-.5V8a.5.5 0 0 0-.575-.5"/>
</svg>
