<svg width="250" height="250" xmlns="http://www.w3.org/2000/svg"><path stroke="#000" stroke-width="2" d="M30 220h200m-200 0V20"/><path d="m230 220-5-5v10zM30 20l-5 5h10z"/><g fill="#87ceeb"><circle cx="60" cy="190" r="5"/><circle cx="65" cy="185" r="5"/><circle cx="70" cy="195" r="5"/><circle cx="75" cy="180" r="5"/><circle cx="80" cy="190" r="5"/><circle cx="85" cy="185" r="5"/><circle cx="90" cy="175" r="5"/><circle cx="95" cy="180" r="5"/><circle cx="100" cy="170" r="5"/><circle cx="105" cy="180" r="5"/><circle cx="110" cy="165" r="5"/><circle cx="115" cy="175" r="5"/><circle cx="120" cy="160" r="5"/><circle cx="125" cy="170" r="5"/><circle cx="130" cy="165" r="5"/><circle cx="135" cy="155" r="5"/><circle cx="140" cy="160" r="5"/><circle cx="145" cy="150" r="5"/><circle cx="150" cy="160" r="5"/><circle cx="155" cy="155" r="5"/><circle cx="160" cy="145" r="5"/><circle cx="165" cy="150" r="5"/><circle cx="170" cy="140" r="5"/><circle cx="73" cy="172" r="5"/><circle cx="83" cy="167" r="5"/><circle cx="99" cy="188" r="5"/><circle cx="112" cy="183" r="5"/><circle cx="148" cy="173" r="5"/><circle cx="128" cy="152" r="5"/><circle cx="163" cy="164" r="5"/><circle cx="138" cy="178" r="5"/><circle cx="107" cy="158" r="5"/><circle cx="86" cy="151" r="5"/></g><circle cx="60" cy="45" r="5" fill="tomato"/></svg>