<svg width="1795" height="4096" viewBox="0 0 1795 4096" fill="none" xmlns="http://www.w3.org/2000/svg"><g clip-path="url(#a)"><path fill="#C5EBD0" stroke="#25CF6C" stroke-width="2" d="M1328 2657h104v36h-104z"/><path d="M1352.24 2672.13a2.14 2.14 0 0 1-1.55-.7c-.21-.23-.36-.51-.45-.85l.64-.27c.09.33.26.61.5.83.24.23.53.34.87.34.22 0 .41-.04.59-.11.18-.08.32-.2.43-.35s.17-.33.17-.54c0-.19-.05-.35-.15-.49-.09-.13-.23-.25-.41-.35a4 4 0 0 0-.69-.3l-.36-.13c-.16-.06-.32-.13-.49-.21a3.5 3.5 0 0 1-.45-.3c-.13-.13-.24-.27-.32-.44q-.12-.255-.12-.6c0-.27.08-.53.23-.76s.35-.41.61-.55.56-.21.91-.21.65.07.89.2c.25.13.44.29.58.47.14.17.24.34.29.49l-.64.27a1.06 1.06 0 0 0-.55-.65c-.15-.09-.34-.13-.57-.13-.18 0-.36.04-.52.11-.16.08-.29.18-.4.32-.09.12-.14.27-.14.44 0 .24.1.43.29.57s.45.27.77.38l.38.13c.17.05.34.13.52.21.18.09.35.2.5.33.16.13.28.3.38.5.1.19.14.42.14.69 0 .3-.05.55-.17.76q-.165.315-.45.51c-.19.14-.39.23-.62.29-.21.07-.43.1-.64.1m4.51 0c-.39 0-.74-.1-1.05-.28a1.9 1.9 0 0 1-.72-.77c-.17-.33-.26-.7-.26-1.11q0-.585.24-1.08c.17-.33.4-.6.69-.79.3-.21.65-.31 1.05-.31s.75.09 1.04.27.51.43.67.74q.24.465.24 1.08c0 .04 0 .07-.01.11 0 .04 0 .07-.01.1h-3.23c.02.29.08.54.2.74.13.23.31.4.51.51.22.12.44.17.67.17.3 0 .54-.07.73-.21.2-.14.36-.32.48-.52l.57.28c-.16.31-.39.56-.69.76-.3.21-.67.31-1.12.31m-1.31-2.6h2.49c-.01-.11-.03-.23-.08-.36a.94.94 0 0 0-.22-.37.96.96 0 0 0-.37-.28 1.3 1.3 0 0 0-.56-.11c-.27 0-.5.07-.7.21-.19.13-.34.31-.44.55a2 2 0 0 0-.12.36m5.8 2.6c-.4 0-.75-.1-1.06-.28-.3-.19-.54-.44-.72-.77-.17-.33-.25-.7-.25-1.11q0-.585.24-1.08c.16-.33.39-.6.68-.79.3-.21.65-.31 1.05-.31.41 0 .75.09 1.04.27.3.18.52.43.67.74q.24.465.24 1.08v.11c0 .04-.01.07-.01.1h-3.23c.01.29.08.54.2.74q.195.345.51.51c.21.12.43.17.66.17.3 0 .55-.07.74-.21.2-.14.35-.32.47-.52l.58.28c-.16.31-.39.56-.69.76-.3.21-.67.31-1.12.31m-1.31-2.6h2.48c0-.11-.03-.23-.08-.36a.9.9 0 0 0-.21-.37 1 1 0 0 0-.38-.28c-.15-.07-.33-.11-.56-.11-.26 0-.5.07-.69.21-.2.13-.34.31-.44.55q-.09.165-.12.36m5.84 2.47v-4.08h.68v4.08zm.33-4.83c-.13 0-.25-.05-.34-.15a.45.45 0 0 1-.15-.34c0-.14.05-.25.15-.34.09-.1.21-.15.34-.15.14 0 .25.05.35.15.09.09.14.2.14.34 0 .13-.05.25-.14.34-.1.1-.21.15-.35.15m1.04 1.37v-.62h.75v-.44c0-.25.06-.47.16-.66.12-.19.27-.34.47-.44.2-.12.43-.17.7-.17.1 0 .2.01.3.02.09.02.19.04.28.07v.67c-.11-.04-.21-.08-.31-.1-.09-.02-.17-.03-.25-.03-.2 0-.36.06-.48.19-.13.13-.19.3-.19.52v.37h1.05v.62h-1.05v3.46h-.68v-3.46zm4.76 0v-.62h.72v-1.15h.68v1.15h1v.62h-1v2.22c0 .23.04.4.14.51.09.11.23.16.42.16q.12 0 .24-.03c.07-.03.15-.06.22-.1v.66c-.09.03-.18.06-.27.07-.09.02-.19.03-.29.03-.35 0-.62-.1-.83-.3-.21-.21-.31-.49-.31-.83v-2.39zm3.21 3.46v-5.73h.68v1.69l-.03.56h.03c.11-.2.28-.37.52-.51.24-.15.51-.22.81-.22.34 0 .63.07.85.21q.345.21.51.57c.11.23.17.5.17.81v2.62h-.68v-2.51q0-.39-.15-.63a.76.76 0 0 0-.37-.34c-.15-.07-.31-.11-.49-.11-.23 0-.43.06-.6.19-.18.13-.32.29-.42.5q-.15.3-.15.63v2.27zm6.31.13c-.4 0-.75-.1-1.06-.28-.3-.19-.54-.44-.72-.77-.17-.33-.25-.7-.25-1.11q0-.585.24-1.08c.16-.33.39-.6.68-.79.3-.21.65-.31 1.05-.31.41 0 .75.09 1.04.27s.52.43.67.74q.24.465.24 1.08v.11c0 .04-.01.07-.01.1h-3.23c.01.29.08.54.2.74q.195.345.51.51c.21.12.43.17.66.17.3 0 .55-.07.74-.21s.35-.32.47-.52l.58.28c-.16.31-.39.56-.69.76-.3.21-.67.31-1.12.31m-1.31-2.6h2.48c0-.11-.03-.23-.08-.36a.9.9 0 0 0-.21-.37 1 1 0 0 0-.38-.28c-.15-.07-.33-.11-.56-.11q-.405 0-.69.21c-.2.13-.34.31-.44.55q-.09.165-.12.36m5.84 2.47v-4.08h.64v.6h.04q.105-.195.3-.36c.13-.11.28-.2.45-.26.17-.07.34-.11.52-.11.3 0 .56.08.78.23.22.14.38.33.47.56.14-.23.33-.41.56-.56.24-.15.52-.23.84-.23.49 0 .85.15 1.08.44.22.3.34.68.34 1.15v2.62h-.67v-2.51c0-.4-.08-.67-.24-.83-.16-.17-.39-.25-.68-.25-.21 0-.4.06-.56.18s-.29.28-.39.47c-.09.2-.13.41-.13.64v2.3h-.68v-2.5q0-.6-.24-.84c-.16-.17-.39-.25-.67-.25-.21 0-.4.06-.56.18q-.24.18-.39.48c-.09.2-.13.41-.13.64v2.29zm8.86.13c-.41 0-.77-.1-1.09-.29-.31-.19-.56-.45-.74-.78a2.24 2.24 0 0 1-.27-1.1c0-.41.09-.77.27-1.1s.43-.59.74-.78c.32-.19.68-.29 1.09-.29s.77.1 1.09.3c.31.19.56.45.73.78.18.33.28.69.28 1.09 0 .41-.1.77-.28 1.1-.17.33-.42.59-.73.78-.32.19-.68.29-1.09.29m0-.62q.36 0 .69-.18c.22-.12.39-.3.53-.53.13-.23.2-.51.2-.84s-.07-.6-.2-.83a1.38 1.38 0 0 0-1.22-.72c-.25 0-.48.06-.7.18s-.39.3-.52.54c-.14.23-.2.5-.2.83s.06.61.2.84c.13.23.3.41.52.53s.45.18.7.18m4.61.62a1.88 1.88 0 0 1-1.7-1.05c-.17-.33-.26-.7-.26-1.12s.09-.79.26-1.12.4-.58.7-.77c.29-.18.63-.28 1-.28.21 0 .41.04.6.11.18.07.33.16.47.27s.24.23.32.36h.03l-.03-.57v-1.69h.68v5.73h-.65v-.6h-.03c-.08.12-.18.24-.32.35s-.29.2-.47.27c-.19.07-.39.11-.6.11m.07-.62c.23 0 .45-.06.65-.18q.315-.195.51-.54c.13-.23.19-.51.19-.83s-.06-.59-.19-.82q-.195-.36-.51-.54c-.2-.13-.42-.19-.65-.19-.24 0-.46.06-.67.19-.2.12-.36.3-.49.54-.13.23-.19.5-.19.82 0 .31.06.59.19.82.13.24.29.42.49.55.21.12.43.18.67.18m4.8.62c-.39 0-.74-.1-1.05-.28a1.9 1.9 0 0 1-.72-.77c-.17-.33-.26-.7-.26-1.11q0-.585.24-1.08c.17-.33.4-.6.69-.79.3-.21.65-.31 1.05-.31s.75.09 1.04.27.51.43.67.74q.24.465.24 1.08c0 .04 0 .07-.01.11 0 .04 0 .07-.01.1h-3.23c.02.29.08.54.2.74q.195.345.51.51c.22.12.44.17.67.17.3 0 .54-.07.73-.21.2-.14.36-.32.47-.52l.58.28c-.16.31-.39.56-.69.76-.3.21-.67.31-1.12.31m-1.31-2.6h2.49c-.01-.11-.03-.23-.08-.36a.94.94 0 0 0-.22-.37.96.96 0 0 0-.37-.28 1.3 1.3 0 0 0-.56-.11c-.27 0-.5.07-.7.21-.19.13-.34.31-.44.55a2 2 0 0 0-.12.36m3.98 2.47v-5.73h.68v5.73zm-66.26 10.13c-.36 0-.7-.1-1-.28-.29-.19-.52-.44-.69-.77s-.26-.7-.26-1.12.09-.79.26-1.12.4-.58.69-.77c.3-.18.64-.28 1-.28.22 0 .42.04.6.11.19.07.34.16.48.27s.24.23.32.36h.03l-.03-.57v-1.69h.68v5.73h-.65v-.6h-.03c-.08.12-.18.24-.32.35s-.29.2-.48.27c-.18.07-.38.11-.6.11m.08-.62c.23 0 .45-.06.65-.18q.315-.195.51-.54c.12-.23.19-.51.19-.83s-.07-.59-.19-.82q-.195-.36-.51-.54c-.2-.13-.42-.19-.65-.19-.24 0-.46.06-.67.19-.2.12-.37.3-.49.54-.13.23-.2.5-.2.82 0 .31.07.59.2.82.12.24.29.42.49.55.21.12.43.18.67.18m4.8.62c-.39 0-.75-.1-1.05-.28a1.9 1.9 0 0 1-.72-.77c-.18-.33-.26-.7-.26-1.11q0-.585.24-1.08c.16-.33.39-.6.69-.79.3-.21.65-.31 1.05-.31s.75.09 1.04.27.51.43.67.74q.24.465.24 1.08c0 .04-.01.07-.01.11s0 .07-.01.1h-3.23c.02.29.08.54.2.74q.195.345.51.51c.21.12.44.17.67.17.29 0 .54-.07.73-.21.2-.14.36-.32.47-.52l.58.28c-.16.31-.39.56-.69.76-.3.21-.67.31-1.12.31m-1.31-2.6h2.49c-.01-.11-.03-.23-.08-.36a1.1 1.1 0 0 0-.22-.37.96.96 0 0 0-.37-.28 1.3 1.3 0 0 0-.56-.11c-.27 0-.5.07-.7.21-.19.13-.34.31-.44.55a2 2 0 0 0-.12.36m3.57-.99v-.62h.72v-1.15h.68v1.15h1v.62h-1v2.22c0 .23.04.4.13.51.1.11.24.16.43.16q.12 0 .24-.03c.07-.03.14-.06.21-.1v.66c-.08.03-.17.06-.26.07q-.135.03-.3.03c-.34 0-.61-.1-.82-.3-.21-.21-.31-.49-.31-.83v-2.39zm4.82 3.59c-.4 0-.75-.1-1.06-.28-.3-.19-.54-.44-.72-.77-.17-.33-.25-.7-.25-1.11q0-.585.24-1.08c.16-.33.39-.6.69-.79.29-.21.64-.31 1.04-.31.41 0 .76.09 1.04.27.3.18.52.43.68.74q.24.465.24 1.08c0 .04-.01.07-.01.11s-.01.07-.01.1h-3.23c.01.29.08.54.2.74q.195.345.51.51c.21.12.43.17.66.17.3 0 .55-.07.74-.21.2-.14.35-.32.47-.52l.58.28c-.16.31-.39.56-.69.76-.3.21-.67.31-1.12.31m-1.31-2.6h2.49c-.01-.11-.04-.23-.08-.36a1.1 1.1 0 0 0-.22-.37 1 1 0 0 0-.38-.28c-.15-.07-.33-.11-.56-.11-.26 0-.5.07-.69.21-.19.13-.34.31-.44.55q-.09.165-.12.36m5.83 2.6c-.4 0-.76-.1-1.08-.28q-.465-.285-.72-.78-.27-.495-.27-1.11 0-.63.27-1.11c.17-.33.41-.58.72-.77.32-.19.68-.29 1.08-.29.45 0 .83.11 1.12.32.3.21.51.48.64.81l-.62.26c-.1-.25-.25-.44-.46-.57-.19-.14-.43-.2-.72-.2-.24 0-.46.06-.67.19-.2.13-.37.31-.49.54-.13.23-.2.51-.2.82s.07.58.2.82c.12.23.29.41.49.54.21.13.43.19.67.19.29 0 .54-.06.75-.2.21-.13.36-.32.46-.57l.61.26c-.13.31-.35.58-.65.8s-.68.33-1.13.33m2.17-3.59v-.62h.72v-1.15h.68v1.15h1v.62h-1v2.22c0 .23.05.4.14.51s.24.16.42.16q.135 0 .24-.03c.08-.03.15-.06.22-.1v.66c-.09.03-.17.06-.27.07-.09.02-.18.03-.29.03-.34 0-.62-.1-.83-.3-.2-.21-.31-.49-.31-.83v-2.39zm4.52 3.59q-.45 0-.81-.15a1.68 1.68 0 0 1-.91-.95l.61-.27c.1.25.26.43.46.57.2.13.44.2.7.2.25 0 .46-.05.62-.15.17-.11.26-.25.26-.45 0-.12-.04-.23-.11-.31a.9.9 0 0 0-.3-.21c-.13-.06-.3-.11-.49-.16l-.49-.13c-.2-.05-.38-.13-.55-.22-.17-.1-.31-.22-.41-.37a.95.95 0 0 1-.16-.56c0-.25.08-.46.22-.63.14-.18.33-.31.57-.4q.345-.15.75-.15c.23 0 .45.04.66.11.2.06.38.16.54.29.15.13.27.29.35.48l-.59.27a.88.88 0 0 0-.41-.42q-.255-.12-.57-.12c-.22 0-.42.05-.58.15-.17.1-.25.23-.25.4s.07.3.2.39c.14.08.31.15.51.2l.59.16q.6.15.9.45c.2.2.31.44.31.73 0 .26-.08.48-.22.66-.14.19-.34.33-.58.44-.25.1-.52.15-.82.15m3.9-3.59v-.62h.72v-1.15h.68v1.15h1v.62h-1v2.22c0 .23.05.4.14.51.1.11.24.16.42.16q.135 0 .24-.03c.08-.03.15-.06.22-.1v.66c-.09.03-.17.06-.26.07q-.135.03-.3.03c-.34 0-.62-.1-.82-.3-.21-.21-.32-.49-.32-.83v-2.39zm3.21 3.46v-5.73h.68v1.69l-.03.56h.03c.11-.2.28-.37.52-.51.25-.15.52-.22.81-.22.35 0 .63.07.86.21.22.14.39.33.5.57.11.23.17.5.17.81v2.62h-.68v-2.51c0-.26-.05-.47-.14-.63a.8.8 0 0 0-.37-.34c-.15-.07-.32-.11-.5-.11-.22 0-.42.06-.6.19-.17.13-.31.29-.41.5-.11.2-.16.41-.16.63v2.27zm6.31.13c-.39 0-.74-.1-1.05-.28a1.9 1.9 0 0 1-.72-.77c-.17-.33-.26-.7-.26-1.11q0-.585.24-1.08c.17-.33.4-.6.69-.79.3-.21.65-.31 1.05-.31s.75.09 1.04.27.51.43.67.74q.24.465.24 1.08c0 .04 0 .07-.01.11 0 .04 0 .07-.01.1h-3.23c.02.29.08.54.2.74q.195.345.51.51c.22.12.44.17.67.17.3 0 .54-.07.73-.21.2-.14.36-.32.47-.52l.58.28c-.16.31-.39.56-.69.76-.3.21-.67.31-1.12.31m-1.31-2.6h2.49c-.01-.11-.03-.23-.08-.36a.94.94 0 0 0-.22-.37.96.96 0 0 0-.37-.28 1.3 1.3 0 0 0-.56-.11c-.27 0-.5.07-.7.21-.19.13-.34.31-.44.55a2 2 0 0 0-.12.36m5.54-.99v-.62h.72v-1.15h.68v1.15h1v.62h-1v2.22c0 .23.05.4.14.51.1.11.24.16.42.16q.135 0 .24-.03c.08-.03.15-.06.22-.1v.66c-.09.03-.17.06-.26.07q-.135.03-.3.03c-.34 0-.62-.1-.82-.3-.21-.21-.32-.49-.32-.83v-2.39zm4.69 3.59c-.5 0-.88-.15-1.13-.44-.25-.3-.38-.7-.38-1.2v-2.57h.68v2.46c0 .41.1.7.28.88.19.17.42.25.7.25.24 0 .45-.06.62-.18.18-.13.31-.29.41-.49s.14-.4.14-.62v-2.3h.68v4.08h-.64v-.59h-.04c-.07.13-.17.25-.31.36-.13.1-.29.19-.46.25-.17.07-.35.11-.55.11m2.99-.13v-4.08h.65v.6h.03a1.5 1.5 0 0 1 .76-.62c.17-.07.34-.11.52-.11.3 0 .56.08.78.23.22.14.38.33.47.56.14-.23.33-.41.56-.56.24-.15.52-.23.84-.23.49 0 .84.15 1.07.44.23.3.35.68.35 1.15v2.62h-.67v-2.51c0-.4-.08-.67-.24-.83-.16-.17-.39-.25-.68-.25-.21 0-.4.06-.56.18s-.29.28-.39.47c-.09.2-.13.41-.13.64v2.3h-.68v-2.5q0-.6-.24-.84c-.16-.17-.39-.25-.68-.25-.2 0-.39.06-.56.18-.16.12-.28.28-.38.48-.09.2-.14.41-.14.64v2.29zm8.87.13c-.41 0-.78-.1-1.09-.29-.32-.19-.56-.45-.74-.78a2.24 2.24 0 0 1-.27-1.1c0-.41.09-.77.27-1.1s.42-.59.74-.78c.31-.19.68-.29 1.09-.29s.77.1 1.09.3c.31.19.56.45.73.78.18.33.27.69.27 1.09 0 .41-.09.77-.27 1.1-.17.33-.42.59-.73.78-.32.19-.68.29-1.09.29m0-.62q.36 0 .69-.18c.21-.12.39-.3.52-.53.14-.23.2-.51.2-.84s-.06-.6-.2-.83c-.13-.24-.31-.42-.52-.54q-.33-.18-.69-.18a1.38 1.38 0 0 0-1.23.72c-.13.23-.2.5-.2.83s.07.61.2.84c.14.23.31.41.53.53s.45.18.7.18m2.87.49v-4.08h.65v.66h.03c.05-.16.14-.29.26-.4.13-.12.27-.21.43-.28.17-.07.33-.1.49-.1.12 0 .22.01.29.02s.13.03.19.06v.74a.9.9 0 0 0-.28-.1c-.09-.02-.19-.03-.29-.03-.2 0-.38.05-.55.17-.16.11-.3.26-.4.44-.09.19-.14.4-.14.62v2.28zm4.82 0v-5.73h.68v1.69l-.03.56h.03c.1-.2.28-.37.52-.51.24-.15.51-.22.81-.22.34 0 .63.07.85.21.23.14.39.33.51.57.11.23.16.5.16.81v2.62h-.68v-2.51c0-.26-.04-.47-.14-.63a.76.76 0 0 0-.37-.34c-.15-.07-.31-.11-.49-.11-.23 0-.43.06-.6.19-.18.13-.32.29-.42.5q-.15.3-.15.63v2.27zm6.31.13c-.4 0-.75-.1-1.06-.28-.3-.19-.54-.44-.72-.77-.17-.33-.26-.7-.26-1.11q0-.585.24-1.08c.17-.33.4-.6.69-.79.3-.21.65-.31 1.05-.31.41 0 .75.09 1.04.27s.52.43.67.74q.24.465.24 1.08c0 .04 0 .07-.01.11v.1h-3.24c.02.29.09.54.2.74.14.23.31.4.52.51.21.12.43.17.66.17.3 0 .54-.07.74-.21.19-.14.35-.32.47-.52l.57.28c-.16.31-.39.56-.68.76-.3.21-.68.31-1.12.31m-1.32-2.6h2.49c0-.11-.03-.23-.08-.36a.9.9 0 0 0-.21-.37c-.1-.12-.23-.21-.38-.28a1.3 1.3 0 0 0-.56-.11c-.27 0-.5.07-.7.21-.19.13-.33.31-.44.55a2 2 0 0 0-.12.36m3.98 2.47v-4.08h.65v.66h.03c.06-.16.15-.29.27-.4.13-.12.27-.21.43-.28.17-.07.33-.1.49-.1.12 0 .22.01.29.02s.13.03.19.06v.74a1 1 0 0 0-.28-.1q-.15-.03-.3-.03c-.2 0-.38.05-.54.17-.17.11-.3.26-.4.44-.1.19-.15.4-.15.62v2.28zm4.62.13c-.39 0-.74-.1-1.05-.28a1.9 1.9 0 0 1-.72-.77c-.17-.33-.26-.7-.26-1.11q0-.585.24-1.08c.17-.33.4-.6.69-.79.3-.21.65-.31 1.05-.31s.75.09 1.04.27.52.43.67.74q.24.465.24 1.08c0 .04 0 .07-.01.11 0 .04 0 .07-.01.1H1418c.02.29.09.54.2.74q.21.345.51.51c.22.12.44.17.67.17.3 0 .54-.07.73-.21.2-.14.36-.32.48-.52l.57.28c-.16.31-.39.56-.69.76-.29.21-.67.31-1.12.31m-1.31-2.6h2.49c0-.11-.03-.23-.08-.36a.83.83 0 0 0-.22-.37.96.96 0 0 0-.37-.28 1.3 1.3 0 0 0-.56-.11c-.27 0-.5.07-.7.21-.19.13-.34.31-.44.55a2 2 0 0 0-.12.36" fill="#000"/><circle cx="1380" cy="2750" r="37" stroke="#25CF6C" stroke-width="2"/><path d="M1455.94 2804.06c.59.59 1.53.59 2.12 0l9.55-9.55c.58-.58.58-1.53 0-2.12-.59-.58-1.54-.58-2.12 0l-8.49 8.49-8.49-8.49c-.58-.58-1.53-.58-2.12 0-.58.59-.58 1.54 0 2.12zm-.44-276.06v275h3v-275z" fill="#2564CF"/><path d="M1379.29 2710.71c.39.39 1.03.39 1.42 0l6.36-6.37a.996.996 0 1 0-1.41-1.41l-5.66 5.66-5.66-5.66a.996.996 0 1 0-1.41 1.41zM1379 2694v16h2v-16z" fill="#25CF6C"/><path fill="#A8C7FA" stroke="#2564CF" stroke-width="3" d="M1221.5 2377.5h472v152h-472z"/><g opacity=".4"><path fill="#A8C7FA" d="M1441 2811h33v12h-33z"/><path stroke="#2564CF" d="M1441 2811h33v12h-33z"/></g><path d="M1235.82 2443v-3.56l15.44-21.84h-14.8v-3.24h18.72v3.56l-15.44 21.84h15.6v3.24zm31.69.64c-2.06 0-3.87-.48-5.44-1.44-1.58-.96-2.82-2.25-3.72-3.88q-1.32-2.475-1.32-5.52c0-2.03.44-3.85 1.32-5.48.9-1.65 2.14-2.96 3.72-3.92 1.57-.96 3.38-1.44 5.44-1.44 2.05 0 3.86.49 5.44 1.48 1.57.96 2.8 2.27 3.68 3.92.9 1.63 1.36 3.44 1.36 5.44 0 2.03-.46 3.87-1.36 5.52-.88 1.63-2.11 2.92-3.68 3.88-1.58.96-3.39 1.44-5.44 1.44m0-3.08c1.22 0 2.37-.31 3.44-.92q1.635-.915 2.64-2.64c.66-1.17 1-2.57 1-4.2s-.34-3.01-1-4.16c-.67-1.17-1.55-2.07-2.64-2.68a6.85 6.85 0 0 0-3.44-.92c-1.23 0-2.39.31-3.48.92-1.1.61-1.98 1.51-2.64 2.68-.67 1.15-1 2.53-1 4.16s.33 3.03 1 4.2q.99 1.725 2.64 2.64c1.09.61 2.25.92 3.48.92m23.75 3.08c-2.06 0-3.87-.48-5.44-1.44-1.58-.96-2.82-2.25-3.72-3.88q-1.32-2.475-1.32-5.52c0-2.03.44-3.85 1.32-5.48.9-1.65 2.14-2.96 3.72-3.92 1.57-.96 3.38-1.44 5.44-1.44 2.05 0 3.86.49 5.44 1.48 1.57.96 2.8 2.27 3.68 3.92.9 1.63 1.36 3.44 1.36 5.44 0 2.03-.46 3.87-1.36 5.52-.88 1.63-2.11 2.92-3.68 3.88-1.58.96-3.39 1.44-5.44 1.44m0-3.08c1.22 0 2.37-.31 3.44-.92q1.635-.915 2.64-2.64c.66-1.17 1-2.57 1-4.2s-.34-3.01-1-4.16c-.67-1.17-1.55-2.07-2.64-2.68a6.85 6.85 0 0 0-3.44-.92c-1.23 0-2.39.31-3.48.92-1.1.61-1.98 1.51-2.64 2.68-.67 1.15-1 2.53-1 4.16s.33 3.03 1 4.2q.99 1.725 2.64 2.64c1.09.61 2.25.92 3.48.92m14.35 2.44v-20.4h3.24v3h.15q.57-1.005 1.53-1.8c.66-.56 1.41-1 2.24-1.32.85-.35 1.72-.52 2.6-.52 1.52 0 2.82.37 3.92 1.12 1.09.72 1.88 1.67 2.36 2.84.69-1.15 1.62-2.09 2.8-2.84 1.17-.75 2.57-1.12 4.2-1.12 2.42 0 4.21.73 5.36 2.2 1.14 1.47 1.72 3.39 1.72 5.76V2443h-3.36v-12.56c0-1.97-.4-3.36-1.2-4.16-.8-.83-1.94-1.24-3.4-1.24-1.04 0-1.98.31-2.8.92-.8.59-1.44 1.37-1.92 2.36-.46.96-.68 2.01-.68 3.16V2443h-3.4v-12.52q0-2.955-1.2-4.2c-.8-.83-1.92-1.24-3.36-1.24-1.04 0-1.98.31-2.8.92q-1.2.915-1.92 2.4c-.46.99-.69 2.05-.69 3.2V2443zm44.21 0v-20.4h3.4v20.4zm1.68-24.16c-.66 0-1.24-.24-1.72-.72s-.72-1.05-.72-1.72c0-.69.24-1.27.72-1.72.48-.48 1.06-.72 1.72-.72.7 0 1.27.24 1.72.72.48.45.72 1.03.72 1.72 0 .67-.24 1.24-.72 1.72-.45.48-1.02.72-1.72.72m6.68 24.16v-20.4h3.24v3h.16c.54-.99 1.4-1.84 2.6-2.56a7.77 7.77 0 0 1 4-1.08c2.51 0 4.39.73 5.64 2.2q1.92 2.16 1.92 5.76V2443h-3.4v-12.56c0-1.97-.48-3.36-1.44-4.16-.93-.83-2.14-1.24-3.64-1.24-1.12 0-2.1.32-2.96.96-.85.61-1.52 1.41-2 2.4q-.72 1.485-.72 3.12V2443zm38.24.64c-1.52 0-2.85-.29-4-.88-1.14-.59-2.05-1.39-2.72-2.4-.64-1.04-.96-2.21-.96-3.52 0-1.49.39-2.75 1.16-3.76.78-1.04 1.82-1.81 3.12-2.32 1.31-.53 2.75-.8 4.32-.8q1.365 0 2.52.24c.78.13 1.44.31 2 .52.59.19 1.03.37 1.32.56v-1.24c0-1.55-.54-2.77-1.64-3.68-1.09-.91-2.42-1.36-4-1.36-1.12 0-2.17.25-3.16.76a5.63 5.63 0 0 0-2.28 2.04l-2.56-1.92c.54-.8 1.2-1.49 2-2.08s1.71-1.04 2.72-1.36c1.04-.32 2.14-.48 3.28-.48 2.78 0 4.95.73 6.52 2.2 1.58 1.47 2.36 3.44 2.36 5.92V2443h-3.24v-2.92h-.16c-.34.59-.84 1.16-1.48 1.72q-.96.795-2.28 1.32c-.85.35-1.8.52-2.84.52m.32-3c1.18 0 2.24-.29 3.2-.88a6.6 6.6 0 0 0 2.36-2.36c.59-.99.88-2.07.88-3.24-.61-.43-1.38-.77-2.32-1.04-.9-.27-1.9-.4-3-.4-1.94 0-3.37.4-4.28 1.2-.9.8-1.36 1.79-1.36 2.96 0 1.12.43 2.03 1.28 2.72.86.69 1.94 1.04 3.24 1.04m14.33 2.36v-20.4h3.24v3h.16c.54-.99 1.4-1.84 2.6-2.56a7.77 7.77 0 0 1 4-1.08c2.51 0 4.39.73 5.64 2.2q1.92 2.16 1.92 5.76V2443h-3.4v-12.56c0-1.97-.48-3.36-1.44-4.16-.93-.83-2.14-1.24-3.64-1.24-1.12 0-2.1.32-2.96.96-.85.61-1.52 1.41-2 2.4q-.72 1.485-.72 3.12V2443zm31.03.64c-1.84 0-3.51-.47-5-1.4q-2.205-1.395-3.48-3.84c-.86-1.63-1.28-3.49-1.28-5.6s.42-3.97 1.28-5.6q1.275-2.445 3.48-3.84c1.49-.93 3.16-1.4 5-1.4 1.09 0 2.09.17 3 .52.9.35 1.69.8 2.36 1.36.69.56 1.22 1.16 1.6 1.8h.16l-.16-2.84v-8.44h3.4V2443h-3.24v-3h-.16c-.38.61-.91 1.2-1.6 1.76-.67.56-1.46 1.01-2.36 1.36-.91.35-1.91.52-3 .52m.36-3.08c1.17 0 2.26-.31 3.28-.92 1.04-.64 1.88-1.53 2.52-2.68.64-1.17.96-2.56.96-4.16s-.32-2.97-.96-4.12c-.64-1.17-1.48-2.07-2.52-2.68-1.02-.64-2.11-.96-3.28-.96-1.18 0-2.28.32-3.32.96-1.02.61-1.84 1.51-2.48 2.68-.64 1.15-.96 2.52-.96 4.12 0 1.57.32 2.95.96 4.12s1.46 2.08 2.48 2.72c1.04.61 2.14.92 3.32.92m22.76-14.88v-3.08h3.6v-5.76h3.4v5.76h5v3.08h-5v11.12c0 1.15.23 2 .68 2.56.48.53 1.19.8 2.12.8.43 0 .83-.05 1.2-.16.37-.13.73-.31 1.08-.52v3.32q-.645.24-1.32.36c-.45.11-.95.16-1.48.16-1.71 0-3.08-.51-4.12-1.52-1.04-1.04-1.56-2.43-1.56-4.16v-11.96zm16.05 17.32v-20.4h3.24v3.28h.16c.27-.77.71-1.44 1.32-2 .64-.59 1.36-1.04 2.16-1.36.83-.35 1.64-.52 2.44-.52q.915 0 1.44.12c.35.05.67.15.96.28v3.68c-.43-.21-.89-.37-1.4-.48-.48-.11-.97-.16-1.48-.16-.99 0-1.89.28-2.72.84s-1.49 1.31-2 2.24c-.48.93-.72 1.96-.72 3.08v11.4zm20.82.64c-1.52 0-2.86-.29-4-.88-1.15-.59-2.06-1.39-2.72-2.4-.64-1.04-.96-2.21-.96-3.52 0-1.49.38-2.75 1.16-3.76.77-1.04 1.81-1.81 3.12-2.32 1.3-.53 2.74-.8 4.32-.8q1.35 0 2.52.24c.77.13 1.44.31 2 .52.58.19 1.02.37 1.32.56v-1.24c0-1.55-.55-2.77-1.64-3.68-1.1-.91-2.43-1.36-4-1.36-1.12 0-2.18.25-3.16.76a5.63 5.63 0 0 0-2.28 2.04l-2.56-1.92c.53-.8 1.2-1.49 2-2.08s1.7-1.04 2.72-1.36c1.04-.32 2.13-.48 3.28-.48 2.77 0 4.94.73 6.52 2.2 1.57 1.47 2.36 3.44 2.36 5.92V2443h-3.24v-2.92h-.16c-.35.59-.84 1.16-1.48 1.72q-.96.795-2.28 1.32c-.86.35-1.8.52-2.84.52m.32-3c1.17 0 2.24-.29 3.2-.88.98-.59 1.77-1.37 2.36-2.36.58-.99.88-2.07.88-3.24-.62-.43-1.39-.77-2.32-1.04-.91-.27-1.91-.4-3-.4-1.95 0-3.38.4-4.28 1.2-.91.8-1.36 1.79-1.36 2.96 0 1.12.42 2.03 1.28 2.72.85.69 1.93 1.04 3.24 1.04m23.57 3c-2 0-3.79-.47-5.36-1.4a10.14 10.14 0 0 1-3.64-3.88c-.88-1.65-1.32-3.51-1.32-5.56 0-2.08.44-3.93 1.32-5.56s2.09-2.91 3.64-3.84c1.57-.96 3.36-1.44 5.36-1.44 2.29 0 4.17.53 5.64 1.6 1.49 1.04 2.54 2.39 3.16 4.04l-3.08 1.28c-.51-1.25-1.27-2.2-2.28-2.84-.99-.67-2.19-1-3.6-1q-1.8 0-3.36.96c-1.02.64-1.84 1.55-2.48 2.72q-.96 1.725-.96 4.08 0 2.325.96 4.08c.64 1.17 1.46 2.08 2.48 2.72q1.56.96 3.36.96c1.44 0 2.68-.33 3.72-1s1.81-1.61 2.32-2.84l3.04 1.28c-.67 1.57-1.75 2.91-3.24 4-1.5 1.09-3.39 1.64-5.68 1.64m21.05 0c-1.97 0-3.73-.47-5.28-1.4q-2.28-1.395-3.6-3.84c-.85-1.63-1.28-3.48-1.28-5.56q0-2.925 1.2-5.4c.83-1.65 1.97-2.97 3.44-3.96 1.49-1.01 3.24-1.52 5.24-1.52 2.03 0 3.76.45 5.2 1.36 1.47.88 2.59 2.11 3.36 3.68q1.2 2.355 1.2 5.4c0 .19-.01.37-.04.56 0 .19-.01.35-.04.48h-16.16c.08 1.47.41 2.71 1 3.72.67 1.15 1.52 2 2.56 2.56 1.07.56 2.17.84 3.32.84 1.49 0 2.72-.35 3.68-1.04.99-.72 1.77-1.6 2.36-2.64l2.88 1.4c-.8 1.55-1.95 2.83-3.44 3.84s-3.36 1.52-5.6 1.52m-6.56-13h12.44a6 6 0 0 0-.4-1.8c-.21-.67-.57-1.28-1.08-1.84-.48-.59-1.11-1.05-1.88-1.4-.75-.37-1.68-.56-2.8-.56-1.33 0-2.49.35-3.48 1.04-.96.67-1.69 1.59-2.2 2.76q-.405.84-.6 1.8m29.2 12.36v-20.4h3.4v20.4zm1.68-24.16c-.67 0-1.24-.24-1.72-.72s-.72-1.05-.72-1.72c0-.69.24-1.27.72-1.72.48-.48 1.05-.72 1.72-.72.69 0 1.26.24 1.72.72.48.45.72 1.03.72 1.72 0 .67-.24 1.24-.72 1.72-.46.48-1.03.72-1.72.72m6.68 24.16v-20.4h3.24v3h.16c.53-.99 1.4-1.84 2.6-2.56a7.75 7.75 0 0 1 4-1.08c2.5 0 4.38.73 5.64 2.2q1.92 2.16 1.92 5.76V2443h-3.4v-12.56c0-1.97-.48-3.36-1.44-4.16-.94-.83-2.15-1.24-3.64-1.24-1.12 0-2.11.32-2.96.96-.86.61-1.52 1.41-2 2.4q-.72 1.485-.72 3.12V2443zm29.46.64c-1.52 0-2.87-.24-4.04-.72-1.15-.51-2.11-1.17-2.88-2a8.8 8.8 0 0 1-1.68-2.76l3.04-1.36c.53 1.23 1.31 2.17 2.32 2.84s2.17 1 3.48 1c1.25 0 2.29-.25 3.12-.76.85-.51 1.28-1.25 1.28-2.24 0-.61-.17-1.12-.52-1.52-.35-.43-.85-.79-1.52-1.08s-1.48-.56-2.44-.8l-2.48-.64c-.96-.27-1.87-.64-2.72-1.12s-1.55-1.09-2.08-1.84c-.51-.77-.76-1.71-.76-2.8 0-1.23.36-2.28 1.08-3.16s1.67-1.55 2.84-2c1.17-.48 2.43-.72 3.76-.72 1.17 0 2.27.17 3.28.52 1.04.32 1.95.81 2.72 1.48.77.64 1.36 1.44 1.76 2.4l-2.96 1.36c-.51-1.01-1.19-1.72-2.04-2.12s-1.8-.6-2.84-.6c-1.12 0-2.09.25-2.92.76-.83.48-1.24 1.15-1.24 2s.33 1.49 1 1.92c.69.43 1.53.77 2.52 1.04l2.96.76c2 .51 3.51 1.27 4.52 2.28 1.01.99 1.52 2.2 1.52 3.64 0 1.28-.36 2.39-1.08 3.32s-1.69 1.65-2.92 2.16-2.59.76-4.08.76m11.71-.64v-20.4h3.4v20.4zm1.68-24.16c-.67 0-1.24-.24-1.72-.72s-.72-1.05-.72-1.72c0-.69.24-1.27.72-1.72.48-.48 1.05-.72 1.72-.72.69 0 1.27.24 1.72.72.48.45.72 1.03.72 1.72 0 .67-.24 1.24-.72 1.72-.45.48-1.03.72-1.72.72m15.36 24.8c-1.84 0-3.51-.47-5-1.4q-2.205-1.395-3.48-3.84c-.86-1.63-1.28-3.49-1.28-5.6s.42-3.97 1.28-5.6q1.275-2.445 3.48-3.84c1.49-.93 3.16-1.4 5-1.4 1.09 0 2.09.17 3 .52.9.35 1.69.8 2.36 1.36.69.56 1.22 1.16 1.6 1.8h.16l-.16-2.84v-8.44h3.4V2443h-3.24v-3h-.16c-.38.61-.91 1.2-1.6 1.76-.67.56-1.46 1.01-2.36 1.36-.91.35-1.91.52-3 .52m.36-3.08c1.17 0 2.26-.31 3.28-.92 1.04-.64 1.88-1.53 2.52-2.68.64-1.17.96-2.56.96-4.16s-.32-2.97-.96-4.12c-.64-1.17-1.48-2.07-2.52-2.68-1.02-.64-2.11-.96-3.28-.96-1.18 0-2.28.32-3.32.96-1.02.61-1.84 1.51-2.48 2.68-.64 1.15-.96 2.52-.96 4.12 0 1.57.32 2.95.96 4.12s1.46 2.08 2.48 2.72c1.04.61 2.14.92 3.32.92m24.02 3.08c-1.97 0-3.73-.47-5.28-1.4q-2.28-1.395-3.6-3.84c-.85-1.63-1.28-3.48-1.28-5.56q0-2.925 1.2-5.4c.83-1.65 1.98-2.97 3.44-3.96 1.5-1.01 3.24-1.52 5.24-1.52 2.03 0 3.76.45 5.2 1.36 1.47.88 2.59 2.11 3.36 3.68q1.2 2.355 1.2 5.4c0 .19-.01.37-.04.56 0 .19-.01.35-.04.48h-16.16c.08 1.47.42 2.71 1 3.72.67 1.15 1.52 2 2.56 2.56 1.07.56 2.18.84 3.32.84 1.5 0 2.72-.35 3.68-1.04.99-.72 1.78-1.6 2.36-2.64l2.88 1.4c-.8 1.55-1.94 2.83-3.44 3.84-1.49 1.01-3.36 1.52-5.6 1.52m-6.56-13h12.44c-.02-.56-.16-1.16-.4-1.8-.21-.67-.57-1.28-1.08-1.84-.48-.59-1.1-1.05-1.88-1.4-.74-.37-1.68-.56-2.8-.56-1.33 0-2.49.35-3.48 1.04-.96.67-1.69 1.59-2.2 2.76q-.39.84-.6 1.8m-344.84 45.04v-3.08h3.6v-5.76h3.4v5.76h5v3.08h-5v11.12c0 1.15.23 2 .68 2.56.48.53 1.19.8 2.12.8.43 0 .83-.05 1.2-.16.38-.13.74-.31 1.08-.52v3.32q-.63.24-1.32.36c-.45.11-.94.16-1.48.16-1.7 0-3.08-.51-4.12-1.52-1.04-1.04-1.56-2.43-1.56-4.16v-11.96zm16.05 17.32v-28.64h3.4v8.44l-.16 2.8h.16c.54-1.01 1.4-1.87 2.6-2.56a7.86 7.86 0 0 1 4.04-1.08c1.74 0 3.16.35 4.28 1.04s1.96 1.64 2.52 2.84q.84 1.755.84 4.08V2493h-3.4v-12.56q0-1.965-.72-3.12c-.45-.8-1.06-1.37-1.84-1.72-.74-.37-1.57-.56-2.48-.56q-1.68 0-3 .96c-.88.64-1.57 1.47-2.08 2.48-.5 1.01-.76 2.07-.76 3.16V2493zm22.46 0v-20.4h3.4v20.4zm1.68-24.16c-.66 0-1.24-.24-1.72-.72s-.72-1.05-.72-1.72c0-.69.24-1.27.72-1.72.48-.48 1.06-.72 1.72-.72.7 0 1.27.24 1.72.72.48.45.72 1.03.72 1.72 0 .67-.24 1.24-.72 1.72-.45.48-1.02.72-1.72.72m13.8 24.8c-1.52 0-2.86-.24-4.04-.72-1.14-.51-2.1-1.17-2.88-2a9.2 9.2 0 0 1-1.68-2.76l3.04-1.36c.54 1.23 1.31 2.17 2.32 2.84 1.02.67 2.18 1 3.48 1 1.26 0 2.3-.25 3.12-.76.86-.51 1.28-1.25 1.28-2.24 0-.61-.17-1.12-.52-1.52-.34-.43-.85-.79-1.52-1.08-.66-.29-1.48-.56-2.44-.8l-2.48-.64c-.96-.27-1.86-.64-2.72-1.12a6.4 6.4 0 0 1-2.08-1.84c-.5-.77-.76-1.71-.76-2.8 0-1.23.36-2.28 1.08-3.16s1.67-1.55 2.84-2a9.9 9.9 0 0 1 3.76-.72c1.18 0 2.27.17 3.28.52 1.04.32 1.95.81 2.72 1.48.78.64 1.36 1.44 1.76 2.4l-2.96 1.36c-.5-1.01-1.18-1.72-2.04-2.12-.85-.4-1.8-.6-2.84-.6-1.12 0-2.09.25-2.92.76-.82.48-1.24 1.15-1.24 2s.34 1.49 1 1.92c.7.43 1.54.77 2.52 1.04l2.96.76c2 .51 3.51 1.27 4.52 2.28 1.02.99 1.52 2.2 1.52 3.64 0 1.28-.36 2.39-1.08 3.32s-1.69 1.65-2.92 2.16c-1.22.51-2.58.76-4.08.76m19.53-17.96v-3.08h3.6v-5.76h3.4v5.76h5v3.08h-5v11.12c0 1.15.22 2 .68 2.56.48.53 1.18.8 2.12.8.42 0 .82-.05 1.2-.16.37-.13.73-.31 1.08-.52v3.32q-.645.24-1.32.36c-.46.11-.95.16-1.48.16-1.71 0-3.08-.51-4.12-1.52-1.04-1.04-1.56-2.43-1.56-4.16v-11.96zm23.45 17.96c-2.51 0-4.4-.73-5.68-2.2-1.25-1.47-1.88-3.47-1.88-6v-12.84h3.4v12.32c0 2.03.47 3.48 1.4 4.36.93.85 2.09 1.28 3.48 1.28 1.2 0 2.24-.31 3.12-.92.88-.64 1.56-1.45 2.04-2.44s.72-2.01.72-3.08v-11.52h3.4v20.4h-3.24v-2.96h-.16q-.525.96-1.56 1.8c-.67.53-1.44.96-2.32 1.28-.85.35-1.76.52-2.72.52m14.94-.64v-20.4h3.24v3h.16c.38-.67.88-1.27 1.52-1.8.67-.56 1.42-1 2.24-1.32.86-.35 1.72-.52 2.6-.52 1.52 0 2.83.37 3.92 1.12 1.1.72 1.88 1.67 2.36 2.84.7-1.15 1.63-2.09 2.8-2.84 1.18-.75 2.58-1.12 4.2-1.12 2.43 0 4.22.73 5.36 2.2 1.15 1.47 1.72 3.39 1.72 5.76V2493h-3.36v-12.56c0-1.97-.4-3.36-1.2-4.16-.8-.83-1.93-1.24-3.4-1.24-1.04 0-1.97.31-2.8.92-.8.59-1.44 1.37-1.92 2.36-.45.96-.68 2.01-.68 3.16V2493h-3.4v-12.52q0-2.955-1.2-4.2c-.8-.83-1.92-1.24-3.36-1.24-1.04 0-1.97.31-2.8.92q-1.2.915-1.92 2.4c-.45.99-.68 2.05-.68 3.2V2493zm44.32.64c-2.05 0-3.86-.48-5.44-1.44a10.4 10.4 0 0 1-3.72-3.88q-1.32-2.475-1.32-5.52c0-2.03.44-3.85 1.32-5.48.91-1.65 2.15-2.96 3.72-3.92 1.58-.96 3.39-1.44 5.44-1.44 2.06 0 3.87.49 5.44 1.48 1.58.96 2.8 2.27 3.68 3.92.91 1.63 1.36 3.44 1.36 5.44 0 2.03-.45 3.87-1.36 5.52a10 10 0 0 1-3.68 3.88c-1.57.96-3.38 1.44-5.44 1.44m0-3.08c1.23 0 2.38-.31 3.44-.92q1.65-.915 2.64-2.64c.67-1.17 1-2.57 1-4.2s-.33-3.01-1-4.16c-.66-1.17-1.54-2.07-2.64-2.68a6.8 6.8 0 0 0-3.44-.92c-1.22 0-2.38.31-3.48.92-1.09.61-1.97 1.51-2.64 2.68-.66 1.15-1 2.53-1 4.16s.34 3.03 1 4.2q1.005 1.725 2.64 2.64c1.1.61 2.26.92 3.48.92m14.35 2.44v-20.4h3.24v3.28h.16c.27-.77.71-1.44 1.32-2 .64-.59 1.36-1.04 2.16-1.36.83-.35 1.64-.52 2.44-.52q.93 0 1.44.12c.35.05.67.15.96.28v3.68c-.42-.21-.89-.37-1.4-.48-.48-.11-.97-.16-1.48-.16-.98 0-1.89.28-2.72.84-.82.56-1.49 1.31-2 2.24-.48.93-.72 1.96-.72 3.08v11.4zm22.63-17.32v-3.08h3.6v-5.76h3.4v5.76h5v3.08h-5v11.12c0 1.15.22 2 .68 2.56.48.53 1.18.8 2.12.8.42 0 .82-.05 1.2-.16.37-.13.73-.31 1.08-.52v3.32q-.645.24-1.32.36c-.46.11-.95.16-1.48.16-1.71 0-3.08-.51-4.12-1.52-1.04-1.04-1.56-2.43-1.56-4.16v-11.96zm16.05 17.32v-20.4h3.4v20.4zm1.68-24.16c-.67 0-1.24-.24-1.72-.72s-.72-1.05-.72-1.72c0-.69.24-1.27.72-1.72.48-.48 1.05-.72 1.72-.72.69 0 1.26.24 1.72.72.48.45.72 1.03.72 1.72 0 .67-.24 1.24-.72 1.72-.46.48-1.03.72-1.72.72m13.8 24.8c-1.52 0-2.87-.24-4.04-.72-1.15-.51-2.11-1.17-2.88-2a8.8 8.8 0 0 1-1.68-2.76l3.04-1.36c.53 1.23 1.3 2.17 2.32 2.84 1.01.67 2.17 1 3.48 1 1.25 0 2.29-.25 3.12-.76.85-.51 1.28-1.25 1.28-2.24 0-.61-.18-1.12-.52-1.52-.35-.43-.86-.79-1.52-1.08-.67-.29-1.48-.56-2.44-.8l-2.48-.64c-.96-.27-1.87-.64-2.72-1.12-.86-.48-1.55-1.09-2.08-1.84-.51-.77-.76-1.71-.76-2.8 0-1.23.36-2.28 1.08-3.16s1.66-1.55 2.84-2c1.17-.48 2.42-.72 3.76-.72 1.17 0 2.26.17 3.28.52 1.04.32 1.94.81 2.72 1.48.77.64 1.36 1.44 1.76 2.4l-2.96 1.36c-.51-1.01-1.19-1.72-2.04-2.12-.86-.4-1.8-.6-2.84-.6-1.12 0-2.1.25-2.92.76-.83.48-1.24 1.15-1.24 2s.33 1.49 1 1.92c.69.43 1.53.77 2.52 1.04l2.96.76c2 .51 3.5 1.27 4.52 2.28 1.01.99 1.52 2.2 1.52 3.64 0 1.28-.36 2.39-1.08 3.32s-1.7 1.65-2.92 2.16c-1.23.51-2.59.76-4.08.76m18.82 0c-1.52 0-2.86-.24-4.04-.72-1.14-.51-2.1-1.17-2.88-2a9.2 9.2 0 0 1-1.68-2.76l3.04-1.36c.54 1.23 1.31 2.17 2.32 2.84 1.02.67 2.18 1 3.48 1 1.26 0 2.3-.25 3.12-.76.86-.51 1.28-1.25 1.28-2.24 0-.61-.17-1.12-.52-1.52-.34-.43-.85-.79-1.52-1.08-.66-.29-1.48-.56-2.44-.8l-2.48-.64c-.96-.27-1.86-.64-2.72-1.12a6.4 6.4 0 0 1-2.08-1.84c-.5-.77-.76-1.71-.76-2.8 0-1.23.36-2.28 1.08-3.16s1.67-1.55 2.84-2a9.9 9.9 0 0 1 3.76-.72c1.18 0 2.27.17 3.28.52 1.04.32 1.95.81 2.72 1.48.78.64 1.36 1.44 1.76 2.4l-2.96 1.36c-.5-1.01-1.18-1.72-2.04-2.12-.85-.4-1.8-.6-2.84-.6-1.12 0-2.09.25-2.92.76-.82.48-1.24 1.15-1.24 2s.34 1.49 1 1.92c.7.43 1.54.77 2.52 1.04l2.96.76c2 .51 3.51 1.27 4.52 2.28 1.02.99 1.52 2.2 1.52 3.64 0 1.28-.36 2.39-1.08 3.32s-1.69 1.65-2.92 2.16c-1.22.51-2.58.76-4.08.76m19.11 0c-2.5 0-4.4-.73-5.68-2.2-1.25-1.47-1.88-3.47-1.88-6v-12.84h3.4v12.32c0 2.03.47 3.48 1.4 4.36.94.85 2.1 1.28 3.48 1.28 1.2 0 2.24-.31 3.12-.92.88-.64 1.56-1.45 2.04-2.44s.72-2.01.72-3.08v-11.52h3.4v20.4h-3.24v-2.96h-.16q-.51.96-1.56 1.8c-.66.53-1.44.96-2.32 1.28-.85.35-1.76.52-2.72.52m24.03 0c-1.98 0-3.74-.47-5.28-1.4q-2.28-1.395-3.6-3.84c-.86-1.63-1.28-3.48-1.28-5.56q0-2.925 1.2-5.4c.82-1.65 1.97-2.97 3.44-3.96 1.49-1.01 3.24-1.52 5.24-1.52 2.02 0 3.76.45 5.2 1.36 1.46.88 2.58 2.11 3.36 3.68q1.2 2.355 1.2 5.4c0 .19-.02.37-.04.56 0 .19-.02.35-.04.48h-16.16c.08 1.47.41 2.71 1 3.72.66 1.15 1.52 2 2.56 2.56 1.06.56 2.17.84 3.32.84 1.49 0 2.72-.35 3.68-1.04.98-.72 1.77-1.6 2.36-2.64l2.88 1.4c-.8 1.55-1.95 2.83-3.44 3.84-1.5 1.01-3.36 1.52-5.6 1.52m-6.56-13h12.44a6 6 0 0 0-.4-1.8 5.2 5.2 0 0 0-1.08-1.84c-.48-.59-1.11-1.05-1.88-1.4-.75-.37-1.68-.56-2.8-.56-1.34 0-2.5.35-3.48 1.04-.96.67-1.7 1.59-2.2 2.76q-.405.84-.6 1.8M1444.21 2816v-2.54h-.81v-.32h1.95v.32h-.8v2.54zm1.24 0v-2.04h.32v.33h.02a.4.4 0 0 1 .13-.2c.06-.06.14-.11.22-.14s.16-.05.24-.05c.06 0 .11 0 .14.01.04.01.07.02.1.03v.37a.6.6 0 0 0-.14-.05c-.05-.01-.1-.02-.15-.02q-.15 0-.27.09c-.08.05-.15.13-.2.22-.05.1-.07.2-.07.31v1.14zm2.08.06c-.15 0-.29-.03-.4-.08a.65.65 0 0 1-.37-.6c0-.15.04-.27.12-.37.07-.11.18-.18.31-.23a1 1 0 0 1 .43-.08c.09 0 .18 0 .25.02.08.01.15.03.2.05.06.02.11.04.14.06v-.13c0-.15-.06-.27-.17-.36a.6.6 0 0 0-.4-.14.65.65 0 0 0-.31.08c-.1.04-.18.11-.23.2l-.26-.19c.05-.08.12-.15.2-.21s.17-.1.27-.14c.11-.03.22-.04.33-.04.28 0 .5.07.65.22.16.14.24.34.24.59v1.29h-.32v-.29h-.02a.73.73 0 0 1-.38.3c-.08.04-.18.05-.28.05m.03-.3c.12 0 .23-.03.32-.08q.15-.09.24-.24c.06-.1.09-.21.09-.32a.8.8 0 0 0-.24-.11 1.4 1.4 0 0 0-.3-.04q-.285 0-.42.12a.36.36 0 0 0-.14.3c0 .11.04.2.13.27.08.07.19.1.32.1m2.36.3a1 1 0 0 1-.54-.14c-.15-.09-.27-.22-.36-.38-.09-.17-.13-.35-.13-.56s.04-.39.13-.56c.09-.16.21-.29.36-.38.16-.1.34-.14.54-.14.23 0 .42.05.56.16.15.1.26.23.32.4l-.31.13a.6.6 0 0 0-.23-.29.64.64 0 0 0-.69 0c-.11.06-.19.15-.25.27a.8.8 0 0 0-.1.41c0 .15.03.29.1.41.06.12.14.21.25.27.1.06.21.1.33.1a.7.7 0 0 0 .37-.1.62.62 0 0 0 .24-.29l.3.13a.95.95 0 0 1-.32.4c-.15.11-.34.16-.57.16m2.1 0c-.19 0-.37-.04-.52-.14a.9.9 0 0 1-.36-.38 1.13 1.13 0 0 1-.13-.56q0-.285.12-.54c.08-.16.19-.29.34-.39s.33-.15.53-.15.37.04.52.13c.14.09.25.21.33.37q.12.24.12.54v.06c0 .01 0 .03-.01.04h-1.61c.01.15.04.27.1.38s.15.2.25.25c.11.06.22.09.34.09.14 0 .27-.04.36-.11.1-.07.18-.16.24-.26l.29.14c-.08.15-.2.28-.35.38s-.33.15-.56.15m-.65-1.3h1.24c0-.05-.01-.11-.04-.18a.6.6 0 0 0-.11-.18.4.4 0 0 0-.18-.14.6.6 0 0 0-.28-.06c-.14 0-.25.04-.35.11-.1.06-.17.16-.22.27q-.045.09-.06.18m3.58 1.3c-.15 0-.29-.03-.4-.08a.65.65 0 0 1-.37-.6c0-.15.04-.27.12-.37.07-.11.18-.18.31-.23a1 1 0 0 1 .43-.08c.09 0 .17 0 .25.02.08.01.15.03.2.05.06.02.1.04.13.06v-.13c0-.15-.05-.27-.16-.36a.6.6 0 0 0-.4-.14c-.11 0-.22.03-.32.08-.09.04-.17.11-.22.2l-.26-.19c.05-.08.12-.15.2-.21s.17-.1.27-.14c.11-.03.21-.04.33-.04.28 0 .49.07.65.22.16.14.24.34.24.59v1.29h-.33v-.29h-.01c-.04.06-.09.11-.15.17-.06.05-.14.1-.23.13-.08.04-.18.05-.28.05m.03-.3c.12 0 .22-.03.32-.08q.15-.09.24-.24c.05-.1.08-.21.08-.32a.7.7 0 0 0-.23-.11 1.4 1.4 0 0 0-.3-.04c-.19 0-.34.04-.43.12a.38.38 0 0 0-.13.3c0 .11.04.2.13.27.08.07.19.1.32.1m2.36 1.1v-2.9h.33v.3h.01c.04-.06.09-.12.16-.18.07-.05.15-.1.24-.13.09-.04.19-.05.3-.05.18 0 .35.04.5.14.14.09.26.22.35.38.08.16.12.35.12.56s-.04.4-.12.56c-.09.16-.21.29-.35.38a.9.9 0 0 1-.5.14c-.16 0-.31-.03-.43-.11a.8.8 0 0 1-.27-.25h-.01l.01.28v.88zm1-1.1c.12 0 .23-.03.33-.1.1-.06.19-.15.25-.27s.09-.25.09-.41-.03-.3-.09-.41a.66.66 0 0 0-.25-.27c-.1-.06-.21-.1-.33-.1s-.23.04-.33.1a.73.73 0 0 0-.25.27c-.06.11-.09.25-.09.41q0 .24.09.42c.07.11.15.2.25.26.1.07.21.1.33.1m2.34.3c-.21 0-.39-.04-.54-.14-.16-.1-.29-.23-.38-.39a1.24 1.24 0 0 1 0-1.1c.09-.16.22-.29.38-.39.15-.1.33-.14.54-.14s.39.05.54.14c.16.1.28.23.37.4a1.12 1.12 0 0 1 0 1.09c-.09.16-.21.29-.37.39-.15.1-.33.14-.54.14m0-.3c.12 0 .24-.03.34-.1.11-.06.2-.15.27-.26a.93.93 0 0 0 0-.84.75.75 0 0 0-.27-.26c-.1-.07-.22-.1-.34-.1s-.24.03-.35.1a.65.65 0 0 0-.26.26c-.07.12-.1.26-.1.42s.03.3.1.42c.06.11.15.2.26.26.11.07.23.1.35.1m1.44.24v-2.86h.34v2.86zm1.39.76-.03.06-.02.04h-.35c.01-.03.03-.07.05-.11s.04-.09.07-.15c.01-.03.03-.07.04-.1s.03-.06.05-.1c.01-.03.04-.07.06-.13l.18-.4-.84-1.91h.37l.64 1.52h.01l.61-1.52h.37l-1.06 2.44c-.01.02-.02.06-.05.11l-.06.15c-.02.05-.03.08-.04.1m2.33.17q-.255 0-.45-.09a1 1 0 0 1-.3-.22.8.8 0 0 1-.16-.26l.31-.14c.05.12.12.21.22.28.1.08.23.12.38.12.21 0 .38-.06.49-.19.12-.12.17-.29.17-.51v-.23h-.01a.82.82 0 0 1-.7.35c-.17 0-.34-.05-.48-.14a.96.96 0 0 1-.35-.37c-.08-.16-.12-.35-.12-.56s.04-.4.12-.56c.09-.16.2-.29.35-.38.14-.09.31-.13.48-.13a.82.82 0 0 1 .7.35h.01v-.29h.33v1.96c0 .23-.05.41-.13.56-.09.15-.21.26-.36.34-.14.07-.31.11-.5.11m0-1.2a.63.63 0 0 0 .57-.35c.06-.11.09-.25.09-.41q0-.255-.09-.42a.63.63 0 0 0-.57-.35c-.12 0-.23.03-.33.1-.1.05-.19.14-.25.26-.06.11-.09.25-.09.41s.03.3.09.41c.06.12.15.2.25.26q.15.09.33.09m2.42.33a.99.99 0 0 1-.91-.53c-.09-.16-.14-.35-.14-.55s.05-.39.14-.55.21-.29.37-.39.34-.14.54-.14c.21 0 .39.05.55.14.15.1.28.23.36.4a1.12 1.12 0 0 1 0 1.09c-.08.16-.21.29-.36.39-.16.1-.34.14-.55.14m0-.3c.12 0 .24-.03.35-.1a.7.7 0 0 0 .26-.26c.07-.12.1-.26.1-.42s-.03-.3-.1-.42a.7.7 0 0 0-.26-.26.64.64 0 0 0-.35-.1c-.12 0-.24.03-.35.1a.7.7 0 0 0-.26.26c-.07.12-.1.26-.1.42s.03.3.1.42c.07.11.15.2.26.26.11.07.23.1.35.1m1.44.24v-2.04h.32v.3h.02c.05-.1.14-.18.26-.26.12-.07.25-.1.4-.1.25 0 .44.07.56.22.13.14.19.33.19.57v1.31h-.34v-1.26c0-.19-.04-.33-.14-.41a.55.55 0 0 0-.36-.13c-.12 0-.22.04-.3.1-.09.06-.15.14-.2.24s-.07.2-.07.31v1.15zm-21.58 5v-2.04h.34v2.04zm.17-2.42c-.06 0-.12-.02-.17-.07a.22.22 0 0 1-.07-.17c0-.07.02-.13.07-.17.05-.05.11-.07.17-.07.07 0 .13.02.17.07.05.04.08.1.08.17s-.03.12-.08.17c-.04.05-.1.07-.17.07m.67 2.42v-2.04h.32v.3h.02c.05-.1.14-.18.26-.26.12-.07.26-.1.4-.1.25 0 .44.07.56.22.13.14.2.33.2.57v1.31h-.34v-1.26c0-.19-.05-.33-.15-.41a.53.53 0 0 0-.66-.03.68.68 0 0 0-.27.55v1.15zm3.02-1.73v-.31h.36v-.58h.34v.58h.5v.31h-.5v1.11c0 .11.02.2.06.26.05.05.12.08.22.08.04 0 .08-.01.12-.02.03-.01.07-.03.1-.05v.33c-.04.02-.08.03-.13.04-.04.01-.09.01-.15.01-.17 0-.3-.05-.41-.15q-.15-.15-.15-.42v-1.19zm1.6 1.73v-2.86h.34v.84l-.01.28h.01c.06-.1.14-.19.26-.26s.26-.1.41-.1c.17 0 .31.03.42.1.12.07.2.16.26.28.05.12.08.26.08.41v1.31h-.34v-1.26a.57.57 0 0 0-.07-.31.4.4 0 0 0-.19-.17.5.5 0 0 0-.24-.06c-.12 0-.22.04-.3.1-.09.06-.16.15-.21.25s-.08.2-.08.31v1.14zm2.25 0v-2.04h.34v2.04zm.17-2.42c-.07 0-.13-.02-.18-.07a.26.26 0 0 1-.07-.17.24.24 0 0 1 .25-.24c.07 0 .12.02.17.07.05.04.07.1.07.17s-.02.12-.07.17a.22.22 0 0 1-.17.07m1.38 2.48c-.16 0-.29-.02-.41-.07a1 1 0 0 1-.29-.2.8.8 0 0 1-.16-.27l.3-.14c.05.12.13.22.23.28.1.07.22.1.35.1s.23-.02.31-.07c.09-.05.13-.13.13-.23 0-.06-.02-.11-.05-.15a.6.6 0 0 0-.15-.11c-.07-.03-.15-.05-.25-.08l-.25-.06c-.09-.03-.18-.06-.27-.11a.8.8 0 0 1-.21-.19.5.5 0 0 1-.07-.28c0-.12.03-.22.11-.31.07-.09.16-.16.28-.2.12-.05.24-.07.38-.07.11 0 .22.01.32.05.11.03.2.08.28.15.07.06.13.14.17.24l-.29.13a.43.43 0 0 0-.21-.21.64.64 0 0 0-.28-.06c-.11 0-.21.03-.29.08-.09.04-.13.11-.13.2 0 .08.04.15.1.19.07.04.16.08.25.1l.3.08c.2.05.35.12.45.23.1.09.15.22.15.36 0 .13-.03.24-.1.33-.08.1-.17.17-.3.22-.12.05-.25.07-.4.07m2.76 0c-.16 0-.29-.03-.4-.08a.73.73 0 0 1-.28-.24.74.74 0 0 1-.09-.36c0-.15.04-.27.11-.37.08-.11.19-.18.32-.23a1 1 0 0 1 .43-.08c.09 0 .17 0 .25.02a1 1 0 0 1 .33.11v-.13c0-.15-.05-.27-.16-.36a.6.6 0 0 0-.4-.14c-.11 0-.22.03-.32.08a.55.55 0 0 0-.23.2l-.25-.19c.05-.08.12-.15.2-.21s.17-.1.27-.14c.1-.03.21-.04.33-.04.28 0 .49.07.65.22.16.14.24.34.24.59v1.29h-.33v-.29h-.01c-.04.06-.09.11-.15.17-.07.05-.14.1-.23.13-.08.04-.18.05-.28.05m.03-.3c.12 0 .22-.03.32-.08.1-.06.18-.14.23-.24.06-.1.09-.21.09-.32a.7.7 0 0 0-.23-.11 1.4 1.4 0 0 0-.3-.04c-.19 0-.34.04-.43.12a.38.38 0 0 0-.13.3q0 .165.12.27c.09.07.2.1.33.1m1.43.24v-2.04h.33v.33h.01c.03-.08.07-.15.13-.2a.7.7 0 0 1 .46-.19c.06 0 .11 0 .15.01l.09.03v.37a.6.6 0 0 0-.14-.05.49.49 0 0 0-.42.07c-.08.05-.15.13-.2.22-.04.1-.07.2-.07.31v1.14zm2.31.06c-.2 0-.37-.04-.53-.14-.15-.09-.27-.22-.36-.38-.08-.16-.12-.35-.12-.56q0-.285.12-.54c.08-.16.19-.29.34-.39s.32-.15.52-.15c.21 0 .38.04.52.13.15.09.26.21.34.37q.12.24.12.54v.06c0 .01-.01.03-.01.04h-1.61c0 .15.04.27.1.38s.15.2.25.25q.165.09.33.09c.15 0 .28-.04.37-.11.1-.07.18-.16.24-.26l.29.14c-.08.15-.2.28-.35.38s-.33.15-.56.15m-.65-1.3h1.24c0-.05-.02-.11-.04-.18a.6.6 0 0 0-.11-.18.45.45 0 0 0-.19-.14.56.56 0 0 0-.28-.06c-.13 0-.25.04-.34.11-.1.06-.17.16-.22.27q-.045.09-.06.18m2.65 1.3c-.16 0-.29-.03-.4-.08a.73.73 0 0 1-.28-.24.74.74 0 0 1-.09-.36c0-.15.04-.27.11-.37.08-.11.19-.18.32-.23a1 1 0 0 1 .43-.08c.09 0 .17 0 .25.02a1 1 0 0 1 .33.11v-.13c0-.15-.05-.27-.16-.36a.6.6 0 0 0-.4-.14c-.11 0-.22.03-.32.08a.55.55 0 0 0-.23.2l-.25-.19c.05-.08.12-.15.2-.21s.17-.1.27-.14c.1-.03.21-.04.33-.04.28 0 .49.07.65.22.16.14.24.34.24.59v1.29h-.33v-.29h-.01c-.04.06-.09.11-.15.17-.07.05-.14.1-.23.13-.09.04-.18.05-.28.05m.03-.3c.12 0 .22-.03.32-.08.1-.06.18-.14.23-.24.06-.1.09-.21.09-.32a.7.7 0 0 0-.23-.11 1.4 1.4 0 0 0-.3-.04c-.19 0-.34.04-.43.12a.38.38 0 0 0-.13.3q0 .165.12.27c.09.07.2.1.33.1" fill="#000"/><path d="M1442.5 2805.5c-.8.4-3.5.5-4 1-1.5 1 0 3-1 4s-4.5 0-5.5 1.5 2.5 2.5 1.5 4.5-2.5 1-3 2.5 0 3 2 4 2.5 3 2 7-8 .5-8.5 2.5 4.5 5.5 8 6 3.5 5.5 7 6 7.5-2.5 10.5-2.5 2.5 3 5.5 3.5 3.5.5 7.5.5 4.5 2.5 6.5 2.5 4-.5 8 .5 7 .5 10 .5 1.5-1 3-4 2-2.5 2-5-2-3-3-3.5-1 1-2 3-2.5.5-4.5.5-3.5-4-3.5-5-4-3.5-3-4.5c3 1 7 0 7.5-2.5s-2.5-1.5-3-2.5.5.5.5-5.5-3-4-4.5-5-1.5-3.5-1.5-5.5-3.5-3-4.5-2.5-4.5.5-5 0-1.5-2-3.5-2-2.5 1-5 1-2-1-3.5-1-2 1-3 1-1-1-3.5-1-5-.75-6.5 0Z" stroke="#2564CF" stroke-linejoin="round"/></g><defs><clipPath id="a"><path fill="#fff" d="M0 0h1795v4096H0z"/></clipPath></defs></svg>