<svg width="1795" height="4096" viewBox="0 0 1795 4096" fill="none" xmlns="http://www.w3.org/2000/svg"><g clip-path="url(#a)"><path fill="#C5EBD0" stroke="#25CF6C" stroke-width="2" d="M1328 2657h104v36h-104z"/><path d="M1352.24 2672.13a2.14 2.14 0 0 1-1.55-.7c-.21-.23-.36-.51-.45-.85l.64-.27c.09.33.26.61.5.83.24.23.53.34.87.34.22 0 .41-.04.59-.11.18-.08.32-.2.43-.35s.17-.33.17-.54c0-.19-.05-.35-.15-.49-.09-.13-.23-.25-.41-.35a4 4 0 0 0-.69-.3l-.36-.13c-.16-.06-.32-.13-.49-.21a3.5 3.5 0 0 1-.45-.3c-.13-.13-.24-.27-.32-.44q-.12-.255-.12-.6c0-.27.08-.53.23-.76s.35-.41.61-.55.56-.21.91-.21.65.07.89.2c.25.13.44.29.58.47.14.17.24.34.29.49l-.64.27a1.06 1.06 0 0 0-.55-.65c-.15-.09-.34-.13-.57-.13-.18 0-.36.04-.52.11-.16.08-.29.18-.4.32-.09.12-.14.27-.14.44 0 .24.1.43.29.57s.45.27.77.38l.38.13c.17.05.34.13.52.21.18.09.35.2.5.33.16.13.28.3.38.5.1.19.14.42.14.69 0 .3-.05.55-.17.76q-.165.315-.45.51c-.19.14-.39.23-.62.29-.21.07-.43.1-.64.1m4.51 0c-.39 0-.74-.1-1.05-.28a1.9 1.9 0 0 1-.72-.77c-.17-.33-.26-.7-.26-1.11q0-.585.24-1.08c.17-.33.4-.6.69-.79.3-.21.65-.31 1.05-.31s.75.09 1.04.27.51.43.67.74q.24.465.24 1.08c0 .04 0 .07-.01.11 0 .04 0 .07-.01.1h-3.23c.02.29.08.54.2.74.13.23.31.4.51.51.22.12.44.17.67.17.3 0 .54-.07.73-.21.2-.14.36-.32.48-.52l.57.28c-.16.31-.39.56-.69.76-.3.21-.67.31-1.12.31m-1.31-2.6h2.49c-.01-.11-.03-.23-.08-.36a.94.94 0 0 0-.22-.37.96.96 0 0 0-.37-.28 1.3 1.3 0 0 0-.56-.11c-.27 0-.5.07-.7.21-.19.13-.34.31-.44.55a2 2 0 0 0-.12.36m5.8 2.6c-.4 0-.75-.1-1.06-.28-.3-.19-.54-.44-.72-.77-.17-.33-.25-.7-.25-1.11q0-.585.24-1.08c.16-.33.39-.6.68-.79.3-.21.65-.31 1.05-.31.41 0 .75.09 1.04.27.3.18.52.43.67.74q.24.465.24 1.08v.11c0 .04-.01.07-.01.1h-3.23c.01.29.08.54.2.74q.195.345.51.51c.21.12.43.17.66.17.3 0 .55-.07.74-.21.2-.14.35-.32.47-.52l.58.28c-.16.31-.39.56-.69.76-.3.21-.67.31-1.12.31m-1.31-2.6h2.48c0-.11-.03-.23-.08-.36a.9.9 0 0 0-.21-.37 1 1 0 0 0-.38-.28c-.15-.07-.33-.11-.56-.11-.26 0-.5.07-.69.21-.2.13-.34.31-.44.55q-.09.165-.12.36m5.84 2.47v-4.08h.68v4.08zm.33-4.83c-.13 0-.25-.05-.34-.15a.45.45 0 0 1-.15-.34c0-.14.05-.25.15-.34.09-.1.21-.15.34-.15.14 0 .25.05.35.15.09.09.14.2.14.34 0 .13-.05.25-.14.34-.1.1-.21.15-.35.15m1.04 1.37v-.62h.75v-.44c0-.25.06-.47.16-.66.12-.19.27-.34.47-.44.2-.12.43-.17.7-.17.1 0 .2.01.3.02.09.02.19.04.28.07v.67c-.11-.04-.21-.08-.31-.1-.09-.02-.17-.03-.25-.03-.2 0-.36.06-.48.19-.13.13-.19.3-.19.52v.37h1.05v.62h-1.05v3.46h-.68v-3.46zm4.76 0v-.62h.72v-1.15h.68v1.15h1v.62h-1v2.22c0 .23.04.4.14.51.09.11.23.16.42.16q.12 0 .24-.03c.07-.03.15-.06.22-.1v.66c-.09.03-.18.06-.27.07-.09.02-.19.03-.29.03-.35 0-.62-.1-.83-.3-.21-.21-.31-.49-.31-.83v-2.39zm3.21 3.46v-5.73h.68v1.69l-.03.56h.03c.11-.2.28-.37.52-.51.24-.15.51-.22.81-.22.34 0 .63.07.85.21q.345.21.51.57c.11.23.17.5.17.81v2.62h-.68v-2.51q0-.39-.15-.63a.76.76 0 0 0-.37-.34c-.15-.07-.31-.11-.49-.11-.23 0-.43.06-.6.19-.18.13-.32.29-.42.5q-.15.3-.15.63v2.27zm6.31.13c-.4 0-.75-.1-1.06-.28-.3-.19-.54-.44-.72-.77-.17-.33-.25-.7-.25-1.11q0-.585.24-1.08c.16-.33.39-.6.68-.79.3-.21.65-.31 1.05-.31.41 0 .75.09 1.04.27s.52.43.67.74q.24.465.24 1.08v.11c0 .04-.01.07-.01.1h-3.23c.01.29.08.54.2.74q.195.345.51.51c.21.12.43.17.66.17.3 0 .55-.07.74-.21s.35-.32.47-.52l.58.28c-.16.31-.39.56-.69.76-.3.21-.67.31-1.12.31m-1.31-2.6h2.48c0-.11-.03-.23-.08-.36a.9.9 0 0 0-.21-.37 1 1 0 0 0-.38-.28c-.15-.07-.33-.11-.56-.11q-.405 0-.69.21c-.2.13-.34.31-.44.55q-.09.165-.12.36m5.84 2.47v-4.08h.64v.6h.04q.105-.195.3-.36c.13-.11.28-.2.45-.26.17-.07.34-.11.52-.11.3 0 .56.08.78.23.22.14.38.33.47.56.14-.23.33-.41.56-.56.24-.15.52-.23.84-.23.49 0 .85.15 1.08.44.22.3.34.68.34 1.15v2.62h-.67v-2.51c0-.4-.08-.67-.24-.83-.16-.17-.39-.25-.68-.25-.21 0-.4.06-.56.18s-.29.28-.39.47c-.09.2-.13.41-.13.64v2.3h-.68v-2.5q0-.6-.24-.84c-.16-.17-.39-.25-.67-.25-.21 0-.4.06-.56.18q-.24.18-.39.48c-.09.2-.13.41-.13.64v2.29zm8.86.13c-.41 0-.77-.1-1.09-.29-.31-.19-.56-.45-.74-.78a2.24 2.24 0 0 1-.27-1.1c0-.41.09-.77.27-1.1s.43-.59.74-.78c.32-.19.68-.29 1.09-.29s.77.1 1.09.3c.31.19.56.45.73.78.18.33.28.69.28 1.09 0 .41-.1.77-.28 1.1-.17.33-.42.59-.73.78-.32.19-.68.29-1.09.29m0-.62q.36 0 .69-.18c.22-.12.39-.3.53-.53.13-.23.2-.51.2-.84s-.07-.6-.2-.83a1.38 1.38 0 0 0-1.22-.72c-.25 0-.48.06-.7.18s-.39.3-.52.54c-.14.23-.2.5-.2.83s.06.61.2.84c.13.23.3.41.52.53s.45.18.7.18m4.61.62a1.88 1.88 0 0 1-1.7-1.05c-.17-.33-.26-.7-.26-1.12s.09-.79.26-1.12.4-.58.7-.77c.29-.18.63-.28 1-.28.21 0 .41.04.6.11.18.07.33.16.47.27s.24.23.32.36h.03l-.03-.57v-1.69h.68v5.73h-.65v-.6h-.03c-.08.12-.18.24-.32.35s-.29.2-.47.27c-.19.07-.39.11-.6.11m.07-.62c.23 0 .45-.06.65-.18q.315-.195.51-.54c.13-.23.19-.51.19-.83s-.06-.59-.19-.82q-.195-.36-.51-.54c-.2-.13-.42-.19-.65-.19-.24 0-.46.06-.67.19-.2.12-.36.3-.49.54-.13.23-.19.5-.19.82 0 .31.06.59.19.82.13.24.29.42.49.55.21.12.43.18.67.18m4.8.62c-.39 0-.74-.1-1.05-.28a1.9 1.9 0 0 1-.72-.77c-.17-.33-.26-.7-.26-1.11q0-.585.24-1.08c.17-.33.4-.6.69-.79.3-.21.65-.31 1.05-.31s.75.09 1.04.27.51.43.67.74q.24.465.24 1.08c0 .04 0 .07-.01.11 0 .04 0 .07-.01.1h-3.23c.02.29.08.54.2.74q.195.345.51.51c.22.12.44.17.67.17.3 0 .54-.07.73-.21.2-.14.36-.32.47-.52l.58.28c-.16.31-.39.56-.69.76-.3.21-.67.31-1.12.31m-1.31-2.6h2.49c-.01-.11-.03-.23-.08-.36a.94.94 0 0 0-.22-.37.96.96 0 0 0-.37-.28 1.3 1.3 0 0 0-.56-.11c-.27 0-.5.07-.7.21-.19.13-.34.31-.44.55a2 2 0 0 0-.12.36m3.98 2.47v-5.73h.68v5.73zm-66.26 10.13c-.36 0-.7-.1-1-.28-.29-.19-.52-.44-.69-.77s-.26-.7-.26-1.12.09-.79.26-1.12.4-.58.69-.77c.3-.18.64-.28 1-.28.22 0 .42.04.6.11.19.07.34.16.48.27s.24.23.32.36h.03l-.03-.57v-1.69h.68v5.73h-.65v-.6h-.03c-.08.12-.18.24-.32.35s-.29.2-.48.27c-.18.07-.38.11-.6.11m.08-.62c.23 0 .45-.06.65-.18q.315-.195.51-.54c.12-.23.19-.51.19-.83s-.07-.59-.19-.82q-.195-.36-.51-.54c-.2-.13-.42-.19-.65-.19-.24 0-.46.06-.67.19-.2.12-.37.3-.49.54-.13.23-.2.5-.2.82 0 .31.07.59.2.82.12.24.29.42.49.55.21.12.43.18.67.18m4.8.62c-.39 0-.75-.1-1.05-.28a1.9 1.9 0 0 1-.72-.77c-.18-.33-.26-.7-.26-1.11q0-.585.24-1.08c.16-.33.39-.6.69-.79.3-.21.65-.31 1.05-.31s.75.09 1.04.27.51.43.67.74q.24.465.24 1.08c0 .04-.01.07-.01.11s0 .07-.01.1h-3.23c.02.29.08.54.2.74q.195.345.51.51c.21.12.44.17.67.17.29 0 .54-.07.73-.21.2-.14.36-.32.47-.52l.58.28c-.16.31-.39.56-.69.76-.3.21-.67.31-1.12.31m-1.31-2.6h2.49c-.01-.11-.03-.23-.08-.36a1.1 1.1 0 0 0-.22-.37.96.96 0 0 0-.37-.28 1.3 1.3 0 0 0-.56-.11c-.27 0-.5.07-.7.21-.19.13-.34.31-.44.55a2 2 0 0 0-.12.36m3.57-.99v-.62h.72v-1.15h.68v1.15h1v.62h-1v2.22c0 .23.04.4.13.51.1.11.24.16.43.16q.12 0 .24-.03c.07-.03.14-.06.21-.1v.66c-.08.03-.17.06-.26.07q-.135.03-.3.03c-.34 0-.61-.1-.82-.3-.21-.21-.31-.49-.31-.83v-2.39zm4.82 3.59c-.4 0-.75-.1-1.06-.28-.3-.19-.54-.44-.72-.77-.17-.33-.25-.7-.25-1.11q0-.585.24-1.08c.16-.33.39-.6.69-.79.29-.21.64-.31 1.04-.31.41 0 .76.09 1.04.27.3.18.52.43.68.74q.24.465.24 1.08c0 .04-.01.07-.01.11s-.01.07-.01.1h-3.23c.01.29.08.54.2.74q.195.345.51.51c.21.12.43.17.66.17.3 0 .55-.07.74-.21.2-.14.35-.32.47-.52l.58.28c-.16.31-.39.56-.69.76-.3.21-.67.31-1.12.31m-1.31-2.6h2.49c-.01-.11-.04-.23-.08-.36a1.1 1.1 0 0 0-.22-.37 1 1 0 0 0-.38-.28c-.15-.07-.33-.11-.56-.11-.26 0-.5.07-.69.21-.19.13-.34.31-.44.55q-.09.165-.12.36m5.83 2.6c-.4 0-.76-.1-1.08-.28q-.465-.285-.72-.78-.27-.495-.27-1.11 0-.63.27-1.11c.17-.33.41-.58.72-.77.32-.19.68-.29 1.08-.29.45 0 .83.11 1.12.32.3.21.51.48.64.81l-.62.26c-.1-.25-.25-.44-.46-.57-.19-.14-.43-.2-.72-.2-.24 0-.46.06-.67.19-.2.13-.37.31-.49.54-.13.23-.2.51-.2.82s.07.58.2.82c.12.23.29.41.49.54.21.13.43.19.67.19.29 0 .54-.06.75-.2.21-.13.36-.32.46-.57l.61.26c-.13.31-.35.58-.65.8s-.68.33-1.13.33m2.17-3.59v-.62h.72v-1.15h.68v1.15h1v.62h-1v2.22c0 .23.05.4.14.51s.24.16.42.16q.135 0 .24-.03c.08-.03.15-.06.22-.1v.66c-.09.03-.17.06-.27.07-.09.02-.18.03-.29.03-.34 0-.62-.1-.83-.3-.2-.21-.31-.49-.31-.83v-2.39zm4.52 3.59q-.45 0-.81-.15a1.68 1.68 0 0 1-.91-.95l.61-.27c.1.25.26.43.46.57.2.13.44.2.7.2.25 0 .46-.05.62-.15.17-.11.26-.25.26-.45 0-.12-.04-.23-.11-.31a.9.9 0 0 0-.3-.21c-.13-.06-.3-.11-.49-.16l-.49-.13c-.2-.05-.38-.13-.55-.22-.17-.1-.31-.22-.41-.37a.95.95 0 0 1-.16-.56c0-.25.08-.46.22-.63.14-.18.33-.31.57-.4q.345-.15.75-.15c.23 0 .45.04.66.11.2.06.38.16.54.29.15.13.27.29.35.48l-.59.27a.88.88 0 0 0-.41-.42q-.255-.12-.57-.12c-.22 0-.42.05-.58.15-.17.1-.25.23-.25.4s.07.3.2.39c.14.08.31.15.51.2l.59.16q.6.15.9.45c.2.2.31.44.31.73 0 .26-.08.48-.22.66-.14.19-.34.33-.58.44-.25.1-.52.15-.82.15m3.9-3.59v-.62h.72v-1.15h.68v1.15h1v.62h-1v2.22c0 .23.05.4.14.51.1.11.24.16.42.16q.135 0 .24-.03c.08-.03.15-.06.22-.1v.66c-.09.03-.17.06-.26.07q-.135.03-.3.03c-.34 0-.62-.1-.82-.3-.21-.21-.32-.49-.32-.83v-2.39zm3.21 3.46v-5.73h.68v1.69l-.03.56h.03c.11-.2.28-.37.52-.51.25-.15.52-.22.81-.22.35 0 .63.07.86.21.22.14.39.33.5.57.11.23.17.5.17.81v2.62h-.68v-2.51c0-.26-.05-.47-.14-.63a.8.8 0 0 0-.37-.34c-.15-.07-.32-.11-.5-.11-.22 0-.42.06-.6.19-.17.13-.31.29-.41.5-.11.2-.16.41-.16.63v2.27zm6.31.13c-.39 0-.74-.1-1.05-.28a1.9 1.9 0 0 1-.72-.77c-.17-.33-.26-.7-.26-1.11q0-.585.24-1.08c.17-.33.4-.6.69-.79.3-.21.65-.31 1.05-.31s.75.09 1.04.27.51.43.67.74q.24.465.24 1.08c0 .04 0 .07-.01.11 0 .04 0 .07-.01.1h-3.23c.02.29.08.54.2.74q.195.345.51.51c.22.12.44.17.67.17.3 0 .54-.07.73-.21.2-.14.36-.32.47-.52l.58.28c-.16.31-.39.56-.69.76-.3.21-.67.31-1.12.31m-1.31-2.6h2.49c-.01-.11-.03-.23-.08-.36a.94.94 0 0 0-.22-.37.96.96 0 0 0-.37-.28 1.3 1.3 0 0 0-.56-.11c-.27 0-.5.07-.7.21-.19.13-.34.31-.44.55a2 2 0 0 0-.12.36m5.54-.99v-.62h.72v-1.15h.68v1.15h1v.62h-1v2.22c0 .23.05.4.14.51.1.11.24.16.42.16q.135 0 .24-.03c.08-.03.15-.06.22-.1v.66c-.09.03-.17.06-.26.07q-.135.03-.3.03c-.34 0-.62-.1-.82-.3-.21-.21-.32-.49-.32-.83v-2.39zm4.69 3.59c-.5 0-.88-.15-1.13-.44-.25-.3-.38-.7-.38-1.2v-2.57h.68v2.46c0 .41.1.7.28.88.19.17.42.25.7.25.24 0 .45-.06.62-.18.18-.13.31-.29.41-.49s.14-.4.14-.62v-2.3h.68v4.08h-.64v-.59h-.04c-.07.13-.17.25-.31.36-.13.1-.29.19-.46.25-.17.07-.35.11-.55.11m2.99-.13v-4.08h.65v.6h.03a1.5 1.5 0 0 1 .76-.62c.17-.07.34-.11.52-.11.3 0 .56.08.78.23.22.14.38.33.47.56.14-.23.33-.41.56-.56.24-.15.52-.23.84-.23.49 0 .84.15 1.07.44.23.3.35.68.35 1.15v2.62h-.67v-2.51c0-.4-.08-.67-.24-.83-.16-.17-.39-.25-.68-.25-.21 0-.4.06-.56.18s-.29.28-.39.47c-.09.2-.13.41-.13.64v2.3h-.68v-2.5q0-.6-.24-.84c-.16-.17-.39-.25-.68-.25-.2 0-.39.06-.56.18-.16.12-.28.28-.38.48-.09.2-.14.41-.14.64v2.29zm8.87.13c-.41 0-.78-.1-1.09-.29-.32-.19-.56-.45-.74-.78a2.24 2.24 0 0 1-.27-1.1c0-.41.09-.77.27-1.1s.42-.59.74-.78c.31-.19.68-.29 1.09-.29s.77.1 1.09.3c.31.19.56.45.73.78.18.33.27.69.27 1.09 0 .41-.09.77-.27 1.1-.17.33-.42.59-.73.78-.32.19-.68.29-1.09.29m0-.62q.36 0 .69-.18c.21-.12.39-.3.52-.53.14-.23.2-.51.2-.84s-.06-.6-.2-.83c-.13-.24-.31-.42-.52-.54q-.33-.18-.69-.18a1.38 1.38 0 0 0-1.23.72c-.13.23-.2.5-.2.83s.07.61.2.84c.14.23.31.41.53.53s.45.18.7.18m2.87.49v-4.08h.65v.66h.03c.05-.16.14-.29.26-.4.13-.12.27-.21.43-.28.17-.07.33-.1.49-.1.12 0 .22.01.29.02s.13.03.19.06v.74a.9.9 0 0 0-.28-.1c-.09-.02-.19-.03-.29-.03-.2 0-.38.05-.55.17-.16.11-.3.26-.4.44-.09.19-.14.4-.14.62v2.28zm4.82 0v-5.73h.68v1.69l-.03.56h.03c.1-.2.28-.37.52-.51.24-.15.51-.22.81-.22.34 0 .63.07.85.21.23.14.39.33.51.57.11.23.16.5.16.81v2.62h-.68v-2.51c0-.26-.04-.47-.14-.63a.76.76 0 0 0-.37-.34c-.15-.07-.31-.11-.49-.11-.23 0-.43.06-.6.19-.18.13-.32.29-.42.5q-.15.3-.15.63v2.27zm6.31.13c-.4 0-.75-.1-1.06-.28-.3-.19-.54-.44-.72-.77-.17-.33-.26-.7-.26-1.11q0-.585.24-1.08c.17-.33.4-.6.69-.79.3-.21.65-.31 1.05-.31.41 0 .75.09 1.04.27s.52.43.67.74q.24.465.24 1.08c0 .04 0 .07-.01.11v.1h-3.24c.02.29.09.54.2.74.14.23.31.4.52.51.21.12.43.17.66.17.3 0 .54-.07.74-.21.19-.14.35-.32.47-.52l.57.28c-.16.31-.39.56-.68.76-.3.21-.68.31-1.12.31m-1.32-2.6h2.49c0-.11-.03-.23-.08-.36a.9.9 0 0 0-.21-.37c-.1-.12-.23-.21-.38-.28a1.3 1.3 0 0 0-.56-.11c-.27 0-.5.07-.7.21-.19.13-.33.31-.44.55a2 2 0 0 0-.12.36m3.98 2.47v-4.08h.65v.66h.03c.06-.16.15-.29.27-.4.13-.12.27-.21.43-.28.17-.07.33-.1.49-.1.12 0 .22.01.29.02s.13.03.19.06v.74a1 1 0 0 0-.28-.1q-.15-.03-.3-.03c-.2 0-.38.05-.54.17-.17.11-.3.26-.4.44-.1.19-.15.4-.15.62v2.28zm4.62.13c-.39 0-.74-.1-1.05-.28a1.9 1.9 0 0 1-.72-.77c-.17-.33-.26-.7-.26-1.11q0-.585.24-1.08c.17-.33.4-.6.69-.79.3-.21.65-.31 1.05-.31s.75.09 1.04.27.52.43.67.74q.24.465.24 1.08c0 .04 0 .07-.01.11 0 .04 0 .07-.01.1H1418c.02.29.09.54.2.74q.21.345.51.51c.22.12.44.17.67.17.3 0 .54-.07.73-.21.2-.14.36-.32.48-.52l.57.28c-.16.31-.39.56-.69.76-.29.21-.67.31-1.12.31m-1.31-2.6h2.49c0-.11-.03-.23-.08-.36a.83.83 0 0 0-.22-.37.96.96 0 0 0-.37-.28 1.3 1.3 0 0 0-.56-.11c-.27 0-.5.07-.7.21-.19.13-.34.31-.44.55a2 2 0 0 0-.12.36" fill="#000"/><circle cx="1380" cy="2750" r="37" stroke="#25CF6C" stroke-width="2"/><circle cx="1460" cy="2828" r="37" stroke="#25CF6C" stroke-width="2"/><path d="M1379.29 2710.71c.39.39 1.03.39 1.42 0l6.36-6.37a.996.996 0 1 0-1.41-1.41l-5.66 5.66-5.66-5.66a.996.996 0 1 0-1.41 1.41zM1379 2694v16h2v-16zm80.66 92.94c.52.19 1.1-.08 1.28-.6l3.03-8.48a1 1 0 0 0-.6-1.28c-.52-.18-1.09.09-1.28.61l-2.69 7.53-7.54-2.69a1 1 0 0 0-1.28.6c-.18.52.09 1.09.61 1.28zm-44.56-93.51 44 93 1.8-.86-44-93z" fill="#25CF6C"/></g><defs><clipPath id="a"><path fill="#fff" d="M0 0h1795v4096H0z"/></clipPath></defs></svg>